<svg width="145" height="48" viewBox="0 0 145 48" fill="none" xmlns="http://www.w3.org/2000/svg">
<mask id="mask0_101_670" style="mask-type:alpha" maskUnits="userSpaceOnUse" x="0" y="0" width="45" height="48">
<rect width="44.6569" height="47.538" fill="#D9D9D9"/>
</mask>
<g mask="url(#mask0_101_670)">
<path d="M22.6514 46.0676C34.9748 46.0676 44.9649 36.0775 44.9649 23.754C44.9649 11.4306 34.9748 1.44043 22.6514 1.44043C10.3279 1.44043 0.337769 11.4306 0.337769 23.754C0.337769 36.0775 10.3279 46.0676 22.6514 46.0676Z" stroke="#222222" stroke-width="0.5733" stroke-miterlimit="10"/>
<path d="M19.4455 40.2849C17.449 31.2658 12.7936 34.6632 9.63636 33.6695C9.2626 33.551 8.25069 32.5026 9.77007 30.3542C10.4659 29.3696 9.80046 28.8774 9.75791 28.4702C9.67283 27.6132 10.2046 27.2091 10.2046 27.2091L9.54824 26.422L10.311 25.319C10.5085 25.0333 10.4264 24.6383 10.1317 24.456L8.60319 23.5048C8.40567 23.3833 8.35097 23.1189 8.48467 22.9305C8.48467 22.9305 11.9914 19.7125 12.3317 17.2511C12.6721 14.7866 12.6569 14.3916 12.8392 13.5742C13.2312 11.8299 14.1975 10.4564 15.1183 9.10113C21.6081 3.60125 20.8879 5.04179 28.8108 2.1607C25.9298 1.44041 25.3224 1.44043 22.6514 1.44043C10.3292 1.44043 0.337769 11.4319 0.337769 23.754C0.337769 35.2496 9.03165 44.7093 20.2021 45.9309C19.9924 43.7916 19.7311 41.5854 19.4455 40.2849Z" fill="#222222"/>
<path d="M22.6514 44.3659C34.035 44.3659 43.2633 35.1376 43.2633 23.754C43.2633 12.3703 34.035 3.14209 22.6514 3.14209C11.2677 3.14209 2.03949 12.3703 2.03949 23.754C2.03949 35.1376 11.2677 44.3659 22.6514 44.3659Z" stroke="#FBF8F1" stroke-width="0.3" stroke-miterlimit="10"/>
<path d="M22.6515 42.5092C33.0097 42.5092 41.4067 34.1122 41.4067 23.754C41.4067 13.3958 33.0097 4.99878 22.6515 4.99878C12.2933 4.99878 3.8963 13.3958 3.8963 23.754C3.8963 34.1122 12.2933 42.5092 22.6515 42.5092Z" stroke="#FBF8F1" stroke-width="0.3" stroke-miterlimit="10"/>
<path d="M8.59106 17.2482L8.81289 16.218L9.03472 17.2482L10.0649 17.47L9.03472 17.6888L8.81289 18.7189L8.59106 17.6888L7.56396 17.47L8.59106 17.2482Z" fill="#FBF8F1"/>
<path d="M7.75543 27.6132L7.85874 27.127L7.96206 27.6132L8.44523 27.7165L7.96206 27.8198L7.85874 28.306L7.75543 27.8198L7.26923 27.7165L7.75543 27.6132Z" fill="#FBF8F1"/>
<path d="M10.0527 13.8143L10.1833 13.2004L10.314 13.8143L10.9278 13.9449L10.314 14.0756L10.1833 14.6894L10.0527 14.0756L9.43884 13.9449L10.0527 13.8143Z" fill="#FBF8F1"/>
<path d="M18.3151 18.9802C17.6618 19.2993 16.9932 19.5485 16.3004 19.7126C15.954 19.8007 15.6045 19.8615 15.249 19.907C14.8935 19.9587 14.5379 19.9648 14.1733 19.983C14.8874 20.1319 15.641 20.1015 16.3521 19.9253C16.7076 19.8372 17.0571 19.7186 17.3883 19.5576C17.7165 19.3996 18.0386 19.2172 18.3151 18.9802Z" fill="#222222"/>
<path d="M18.3363 18.9953C17.6435 19.1199 16.9415 19.202 16.2426 19.2293C15.8931 19.2445 15.5437 19.2384 15.2033 19.205C14.866 19.1716 14.5227 19.1078 14.2644 18.9619L14.0699 19.3539C14.4497 19.515 14.8235 19.5302 15.1881 19.5332C15.5528 19.5302 15.9083 19.4998 16.2608 19.4481C16.9658 19.3478 17.6587 19.1898 18.3363 18.9953Z" fill="#222222"/>
<path d="M14.3768 19.1533C14.2857 19.2445 14.1519 19.3296 14.0213 19.3964C13.8876 19.4633 13.7448 19.5149 13.5959 19.5514C13.3011 19.6213 12.9881 19.6395 12.6751 19.6061C12.979 19.6729 13.2981 19.6973 13.6141 19.6578C13.7721 19.6365 13.9301 19.6 14.0821 19.5453C14.237 19.4876 14.3799 19.4238 14.5227 19.3113L14.3768 19.1533Z" fill="#222222"/>
<path d="M14.7172 19.2231C14.6595 19.3204 14.5531 19.4267 14.4528 19.5149C14.3465 19.606 14.231 19.685 14.1095 19.758C13.8664 19.9038 13.602 20.0193 13.3285 20.1135C13.6111 20.0558 13.8907 19.9737 14.1581 19.8552C14.2918 19.7975 14.4224 19.7276 14.5501 19.6455C14.6747 19.5604 14.7932 19.4784 14.9026 19.3386L14.7172 19.2231Z" fill="#222222"/>
<path d="M15.3888 19.3081C15.331 19.4053 15.2247 19.5117 15.1244 19.5998C15.018 19.691 14.9026 19.77 14.781 19.8429C14.5379 19.9888 14.2735 20.1043 14.0001 20.1985C14.2827 20.1407 14.5622 20.0587 14.8296 19.9402C14.9633 19.8824 15.094 19.8125 15.2216 19.7305C15.3462 19.6454 15.4647 19.5634 15.5741 19.4236L15.3888 19.3081Z" fill="#222222"/>
<path d="M11.8761 27.9626L9.76721 27.2819L9.91915 26.9233L11.8761 27.9626Z" fill="#222222"/>
<mask id="mask1_101_670" style="mask-type:luminance" maskUnits="userSpaceOnUse" x="8" y="1" width="52" height="51">
<path d="M37.2862 1.44043C32.6065 1.44043 18.9443 3.40954 15.1215 9.10114C14.2068 10.4595 13.2344 11.8299 12.8424 13.5742C12.6601 14.3916 12.6753 14.7866 12.335 17.2511C11.9946 19.7155 8.4879 22.9305 8.4879 22.9305C8.35419 23.122 8.40889 23.3833 8.60641 23.5048L10.1349 24.456C10.4297 24.6383 10.5117 25.0333 10.3142 25.319L9.55146 26.422L10.2078 27.2091C10.2078 27.2091 9.67605 27.6132 9.76114 28.4702C9.80064 28.8743 10.4692 29.3696 9.77329 30.3542C8.25391 32.5026 9.26582 33.554 9.63959 33.6695C12.7938 34.6632 17.4492 31.2658 19.4487 40.2849C20.1446 43.4239 20.6885 51.8595 20.6885 51.8595L31.6918 45.3596C33.4817 45.8215 35.3566 46.0676 37.2923 46.0676C49.6144 46.0676 59.6059 36.0762 59.6059 23.754C59.6059 11.4319 49.6114 1.44043 37.2862 1.44043Z" fill="white"/>
</mask>
<g mask="url(#mask1_101_670)">
<path d="M22.514 45.9761C34.8122 45.9761 44.7819 36.0064 44.7819 23.7083C44.7819 11.4101 34.8122 1.44043 22.514 1.44043C10.2159 1.44043 0.246216 11.4101 0.246216 23.7083C0.246216 36.0064 10.2159 45.9761 22.514 45.9761Z" stroke="#222222" stroke-width="0.3" stroke-miterlimit="10"/>
</g>
<mask id="mask2_101_670" style="mask-type:luminance" maskUnits="userSpaceOnUse" x="8" y="1" width="52" height="51">
<path d="M37.2862 1.44043C32.6065 1.44043 18.9443 3.40954 15.1215 9.10114C14.2068 10.4595 13.2344 11.8299 12.8424 13.5742C12.6601 14.3916 12.6753 14.7866 12.335 17.2511C11.9946 19.7155 8.4879 22.9305 8.4879 22.9305C8.35419 23.122 8.40889 23.3833 8.60641 23.5048L10.1349 24.456C10.4297 24.6383 10.5117 25.0333 10.3142 25.319L9.55146 26.422L10.2078 27.2091C10.2078 27.2091 9.67605 27.6132 9.76114 28.4702C9.80064 28.8743 10.4692 29.3696 9.77329 30.3542C8.25391 32.5026 9.26582 33.554 9.63959 33.6695C12.7938 34.6632 17.4492 31.2658 19.4487 40.2849C20.1446 43.4239 20.6885 51.8595 20.6885 51.8595L31.6918 45.3596C33.4817 45.8215 35.3566 46.0676 37.2923 46.0676C49.6144 46.0676 59.6059 36.0762 59.6059 23.754C59.6059 11.4319 49.6114 1.44043 37.2862 1.44043Z" fill="white"/>
</mask>
<g mask="url(#mask2_101_670)">
<path d="M22.6514 44.3659C34.035 44.3659 43.2633 35.1376 43.2633 23.754C43.2633 12.3703 34.035 3.14209 22.6514 3.14209C11.2677 3.14209 2.03949 12.3703 2.03949 23.754C2.03949 35.1376 11.2677 44.3659 22.6514 44.3659Z" stroke="#222222" stroke-width="0.3" stroke-miterlimit="10"/>
<path d="M22.6515 42.5092C33.0097 42.5092 41.4067 34.1122 41.4067 23.754C41.4067 13.3958 33.0097 4.99878 22.6515 4.99878C12.2933 4.99878 3.8963 13.3958 3.8963 23.754C3.8963 34.1122 12.2933 42.5092 22.6515 42.5092Z" stroke="#222222" stroke-width="0.3" stroke-miterlimit="10"/>
</g>
<path d="M46.1797 13.582H33.9556V36.6719H46.1797V13.582Z" fill="#FBF8F1"/>
</g>
<path d="M30.1726 35.9747C28.9857 35.9747 28.01 35.894 27.2455 35.7326C26.481 35.5913 25.8675 35.3794 25.4048 35.0969C24.9622 34.7942 24.6504 34.4208 24.4693 33.9769C24.3084 33.5329 24.2279 33.0082 24.2279 32.4028C24.2279 32.2212 24.238 31.9689 24.2581 31.6461C24.2782 31.303 24.3084 30.8288 24.3486 30.2233C24.3888 29.6179 24.4391 28.841 24.4995 27.8925C24.58 26.9239 24.6805 25.7131 24.8012 24.2601C24.9421 22.464 25.0527 21.0413 25.1332 19.992C25.2137 18.9426 25.274 18.1354 25.3142 17.5703C25.3545 16.9851 25.3746 16.5815 25.3746 16.3595C25.3947 16.1173 25.4048 15.9155 25.4048 15.7541C25.4048 15.4312 25.4048 15.1689 25.4048 14.9671C25.4249 14.7653 25.445 14.6139 25.4651 14.513C25.5054 14.3919 25.5556 14.3112 25.616 14.2709C25.6965 14.2103 25.8071 14.18 25.9479 14.18C27.1349 14.0993 28.1407 14.0388 28.9655 13.9984C29.8105 13.9581 30.5447 13.9379 31.1684 13.9379C32.6973 13.9379 34.0049 14.069 35.0913 14.3314C36.1977 14.5736 37.0929 14.9267 37.7769 15.3909C38.4609 15.855 38.9639 16.4301 39.2857 17.1163C39.6076 17.8024 39.7685 18.5793 39.7685 19.4471C39.7685 19.9314 39.7183 20.4359 39.6177 20.9606C39.5171 21.4651 39.3461 21.9494 39.1047 22.4136C38.8633 22.8777 38.5313 23.2914 38.1089 23.6547C37.7065 23.9977 37.1935 24.25 36.5699 24.4114C37.7367 24.7747 38.5615 25.3801 39.0443 26.2277C39.5271 27.055 39.7685 28.0439 39.7685 29.1942C39.7685 30.1224 39.6177 31.0003 39.3159 31.8277C39.0141 32.6349 38.4911 33.3513 37.7468 33.9769C37.0024 34.5823 36.0167 35.0666 34.7895 35.4299C33.5623 35.7931 32.0234 35.9747 30.1726 35.9747ZM31.8926 26.5909C31.6713 26.5909 31.3997 26.6111 31.0779 26.6514C30.756 26.6716 30.424 26.712 30.082 26.7725L29.7501 31.7066C30.4743 31.9286 31.1281 32.0396 31.7116 32.0396C32.3352 32.0396 32.8381 31.9488 33.2204 31.7671C33.6026 31.5855 33.8943 31.3635 34.0955 31.1012C34.3167 30.8187 34.4576 30.516 34.5179 30.1931C34.5984 29.85 34.6386 29.5372 34.6386 29.2547C34.6386 28.508 34.4274 27.8824 34.0049 27.3779C33.6026 26.8532 32.8985 26.5909 31.8926 26.5909ZM30.6252 18.2665C30.585 18.7912 30.5447 19.4067 30.5045 20.113C30.4844 20.8193 30.4442 21.5862 30.3838 22.4136C31.0276 22.575 31.6009 22.6558 32.1038 22.6558C32.7074 22.6558 33.1902 22.5851 33.5523 22.4439C33.9144 22.3026 34.196 22.121 34.3972 21.899C34.6185 21.677 34.7593 21.4348 34.8197 21.1725C34.9001 20.9102 34.9404 20.6579 34.9404 20.4157C34.9404 19.7902 34.7292 19.2554 34.3067 18.8114C33.9043 18.3473 33.2002 18.1152 32.1944 18.1152C31.9731 18.1152 31.7216 18.1354 31.44 18.1757C31.1784 18.1959 30.9069 18.2262 30.6252 18.2665Z" fill="#212121"/>
<path d="M49.1674 35.9747C48.2823 35.9747 47.3971 35.8637 46.5119 35.6417C45.6469 35.4198 44.8623 35.0363 44.1582 34.4915C43.4742 33.9466 42.9109 33.2201 42.4684 32.312C42.0258 31.4039 41.8045 30.2637 41.8045 28.8914C41.8045 28.3869 41.8447 27.7815 41.9252 27.0752C42.0057 26.3689 42.1565 25.6424 42.3778 24.8958C42.6192 24.1491 42.9411 23.4125 43.3435 22.686C43.7659 21.9394 44.3091 21.2734 44.973 20.6882C45.6368 20.1029 46.4415 19.6287 47.387 19.2655C48.3326 18.9022 49.4591 18.7206 50.7668 18.7206C51.8129 18.7206 52.698 18.8417 53.4222 19.0838C54.1465 19.326 54.7299 19.659 55.1724 20.0828C55.615 20.4864 55.9369 20.9606 56.1381 21.5055C56.3393 22.0503 56.4398 22.6356 56.4398 23.2612C56.4398 24.1894 56.2487 24.9765 55.8665 25.6222C55.5044 26.268 55.0216 26.8129 54.418 27.2568C53.8346 27.6806 53.1808 28.0136 52.4566 28.2558C51.7324 28.4979 51.0182 28.6896 50.3141 28.8309C49.61 28.952 48.9562 29.0327 48.3527 29.0731C47.7693 29.0933 47.3166 29.1033 46.9948 29.1033C46.9948 29.4868 47.045 29.8702 47.1456 30.2536C47.2663 30.6169 47.4373 30.9397 47.6586 31.2223C47.8799 31.5048 48.1716 31.7369 48.5337 31.9185C48.8958 32.1001 49.3384 32.1909 49.8615 32.1909C50.3845 32.1909 50.7869 32.1102 51.0685 31.9488C51.3703 31.7671 51.6117 31.5754 51.7927 31.3736C51.9738 31.1516 52.1247 30.9599 52.2454 30.7985C52.3862 30.6169 52.5673 30.5261 52.7885 30.5261C52.8891 30.5261 53.0601 30.5563 53.3015 30.6169C53.5631 30.6572 53.8246 30.7581 54.0861 30.9196C54.3476 31.081 54.579 31.303 54.7802 31.5855C54.9813 31.868 55.0819 32.2313 55.0819 32.6752C55.0819 33.2605 54.9009 33.765 54.5388 34.1888C54.1766 34.6126 53.7039 34.9556 53.1205 35.218C52.5572 35.4803 51.9235 35.672 51.2194 35.7931C50.5153 35.9142 49.8313 35.9747 49.1674 35.9747ZM49.7408 22.7466C49.2982 22.7466 48.916 22.8777 48.5941 23.1401C48.2923 23.3822 48.0308 23.695 47.8095 24.0785C47.6083 24.4619 47.4474 24.8857 47.3267 25.3498C47.2261 25.814 47.1456 26.2579 47.0853 26.6817C48.3326 26.6615 49.3384 26.4496 50.1029 26.046C50.8875 25.6424 51.2797 25.0673 51.2797 24.3206C51.2797 23.917 51.149 23.5538 50.8875 23.2309C50.646 22.908 50.2638 22.7466 49.7408 22.7466Z" fill="#212121"/>
<path d="M57.352 31.9488C57.352 30.1325 58.1667 28.7098 59.7962 27.6806C61.4257 26.6514 63.8297 26.0965 67.0083 26.0158C67.0284 25.7938 67.0384 25.6122 67.0384 25.4709C67.0586 25.3095 67.0686 25.1177 67.0686 24.8958C67.0686 24.25 66.9479 23.7354 66.7065 23.352C66.4651 22.9685 65.9622 22.7768 65.1977 22.7768C64.7752 22.7768 64.4333 22.8374 64.1717 22.9585C63.9102 23.0795 63.699 23.2511 63.538 23.4731C63.3771 23.6749 63.2463 23.9271 63.1457 24.2298C63.0452 24.5325 62.9546 24.8655 62.8742 25.2287C62.8339 25.4104 62.7434 25.5314 62.6026 25.592C62.4618 25.6323 62.2405 25.6525 61.9387 25.6525C59.8867 25.6525 58.8608 24.8756 58.8608 23.3217C58.8608 22.6961 59.0016 22.1008 59.2832 21.5357C59.585 20.9707 60.0175 20.4864 60.5808 20.0828C61.1642 19.659 61.8884 19.326 62.7535 19.0838C63.6185 18.8417 64.6244 18.7206 65.7711 18.7206C68.0041 18.7206 69.6235 19.1847 70.6294 20.113C71.6353 21.0413 72.1382 22.353 72.1382 24.0482C72.1382 24.2702 72.108 24.6738 72.0477 25.259C72.0074 25.8241 71.9471 26.4295 71.8666 27.0752C71.8063 27.7008 71.7459 28.2961 71.6856 28.8612C71.6453 29.4262 71.6252 29.8197 71.6252 30.0417C71.6252 30.5462 71.7157 30.9095 71.8968 31.1315C72.0778 31.3333 72.279 31.4745 72.5003 31.5552C72.7417 31.636 72.9529 31.6965 73.134 31.7369C73.3151 31.7772 73.4056 31.8781 73.4056 32.0396C73.4056 32.4835 73.3452 32.9376 73.2245 33.4017C73.1038 33.8659 72.9027 34.2897 72.621 34.6731C72.3595 35.0565 71.9873 35.3693 71.5045 35.6115C71.0418 35.8536 70.4685 35.9747 69.7845 35.9747C68.8188 35.9747 68.0946 35.7426 67.6118 35.2785C67.129 34.8144 66.8071 34.1686 66.6462 33.3412C66.1633 34.0475 65.5297 34.663 64.7451 35.1877C63.9806 35.7124 62.9747 35.9747 61.7275 35.9747C61.124 35.9747 60.5506 35.9041 60.0074 35.7628C59.4844 35.6216 59.0217 35.3895 58.6193 35.0666C58.2371 34.7437 57.9253 34.33 57.6839 33.8255C57.4626 33.3008 57.352 32.6752 57.352 31.9488ZM66.7367 28.4979C66.2136 28.4979 65.7006 28.5383 65.1977 28.619C64.6948 28.6997 64.2421 28.8309 63.8398 29.0125C63.4576 29.174 63.1457 29.396 62.9043 29.6785C62.6629 29.961 62.5422 30.3041 62.5422 30.7077C62.5422 31.1718 62.683 31.4947 62.9647 31.6763C63.2665 31.8579 63.5883 31.9488 63.9303 31.9488C64.2522 31.9488 64.5741 31.8781 64.896 31.7369C65.2178 31.5956 65.4995 31.3837 65.7409 31.1012C66.0024 30.7985 66.2237 30.4352 66.4048 30.0115C66.5858 29.5877 66.6965 29.0832 66.7367 28.4979Z" fill="#212121"/>
<path d="M81.0243 21.5963C81.0243 22.0201 80.9841 22.6154 80.9036 23.3822C80.8433 24.1491 80.7729 24.9462 80.6924 25.7736C80.632 26.601 80.5616 27.3779 80.4811 28.1044C80.4208 28.8309 80.3906 29.3556 80.3906 29.6785C80.3906 30.3848 80.5616 30.9397 80.9036 31.3434C81.2657 31.7268 81.7586 31.9185 82.3822 31.9185C82.9254 31.9185 83.378 31.7066 83.7402 31.2828C84.1224 30.8388 84.4241 30.2738 84.6454 29.5877C84.8868 28.8814 85.078 28.0842 85.2188 27.1963C85.3596 26.3084 85.4602 25.4104 85.5205 24.5022C85.601 23.5941 85.6614 22.7163 85.7016 21.8687C85.7619 21.001 85.8223 20.2543 85.8827 19.6287C85.9028 19.4673 85.9631 19.326 86.0637 19.2049C86.1643 19.0838 86.3252 19.0233 86.5465 19.0233H87.6329C88.2565 19.0233 88.7594 19.0939 89.1417 19.2352C89.544 19.3563 89.8558 19.5379 90.0771 19.7801C90.3185 20.0222 90.4795 20.3249 90.5599 20.6882C90.6605 21.0312 90.7108 21.4348 90.7108 21.899C90.7108 22.2017 90.6907 22.6356 90.6505 23.2006C90.6303 23.7455 90.58 24.5123 90.4996 25.5012C90.4191 26.4698 90.3185 27.7109 90.1978 29.2244C90.0972 30.7178 89.9665 32.5743 89.8055 34.7942C89.7653 35.218 89.715 35.4702 89.6546 35.5509C89.6144 35.6317 89.4535 35.672 89.1718 35.672H87.995C87.3915 35.672 86.8885 35.6014 86.4862 35.4601C86.1039 35.3189 85.7921 35.1372 85.5507 34.9153C85.3093 34.6933 85.1383 34.4309 85.0377 34.1282C84.9371 33.8255 84.8768 33.5127 84.8567 33.1898C84.5549 33.7145 84.2129 34.1585 83.8307 34.5217C83.4686 34.885 83.0863 35.1776 82.684 35.3996C82.2817 35.6014 81.8692 35.7426 81.4468 35.8234C81.0243 35.9243 80.6119 35.9747 80.2096 35.9747C79.4451 35.9747 78.7611 35.8536 78.1576 35.6115C77.5541 35.3491 77.0411 35.0061 76.6186 34.5823C76.2163 34.1585 75.9045 33.654 75.6832 33.0688C75.4619 32.4835 75.3512 31.8579 75.3512 31.192C75.3512 30.9297 75.3613 30.5059 75.3814 29.9206C75.4216 29.3152 75.4619 28.6392 75.5021 27.8925C75.5625 27.1459 75.6228 26.3588 75.6832 25.5314C75.7435 24.6839 75.7938 23.8867 75.834 23.1401C75.8944 22.3934 75.9447 21.7375 75.9849 21.1725C76.0453 20.6075 76.0855 20.2038 76.1056 19.9617C76.1459 19.5984 76.2263 19.3563 76.347 19.2352C76.4677 19.0939 76.6689 19.0233 76.9506 19.0233H77.9162C78.5398 19.0233 79.0528 19.0838 79.4552 19.2049C79.8575 19.326 80.1693 19.4975 80.3906 19.7195C80.632 19.9415 80.793 20.2139 80.8734 20.5368C80.974 20.8395 81.0243 21.1927 81.0243 21.5963Z" fill="#212121"/>
<path d="M99.8423 23.1098C99.782 23.8767 99.7116 24.6334 99.6311 25.3801C99.5708 26.1268 99.5104 26.8331 99.4501 27.499C99.3897 28.165 99.3394 28.7603 99.2992 29.285C99.2791 29.8097 99.269 30.2133 99.269 30.4958C99.269 31.0205 99.3294 31.3736 99.4501 31.5552C99.5708 31.7167 99.7719 31.7974 100.054 31.7974C100.275 31.7974 100.466 31.757 100.627 31.6763C100.788 31.5956 100.939 31.5048 101.08 31.4039C101.22 31.303 101.341 31.2122 101.442 31.1315C101.562 31.0507 101.693 31.0104 101.834 31.0104C101.975 31.0104 102.106 31.0911 102.226 31.2525C102.347 31.414 102.407 31.7873 102.407 32.3725C102.407 33.4825 102.106 34.3603 101.502 35.0061C100.899 35.6518 99.8625 35.9747 98.3939 35.9747C96.9454 35.9747 95.8692 35.6417 95.1651 34.9758C94.4811 34.2897 94.1391 33.2504 94.1391 31.8579C94.1391 31.5552 94.1491 31.2021 94.1693 30.7985C94.2095 30.3747 94.2598 29.8298 94.3201 29.1639C94.3805 28.4979 94.4509 27.6806 94.5314 26.712C94.632 25.7433 94.7326 24.5426 94.8331 23.1098H93.2338C93.0729 23.1098 92.9723 23.0795 92.932 23.019C92.9119 22.9383 92.9019 22.8273 92.9019 22.686L92.9924 21.1422C93.0125 20.8799 93.0427 20.6276 93.0829 20.3855C93.1433 20.1231 93.2439 19.8911 93.3847 19.6893C93.5456 19.4874 93.7669 19.326 94.0486 19.2049C94.3302 19.0838 94.7024 19.0233 95.1651 19.0233C95.3059 18.6601 95.4668 18.2262 95.6479 17.7217C95.8289 17.2172 96.01 16.7328 96.1911 16.2687C96.3721 15.7844 96.5431 15.3808 96.704 15.0579C96.8851 14.735 97.046 14.5736 97.1869 14.5736H98.062C98.9069 14.5736 99.4903 14.8359 99.8122 15.3606C100.134 15.8853 100.295 16.5109 100.295 17.2373C100.295 17.641 100.265 18.2363 100.204 19.0233H103.373C103.695 19.0233 103.856 19.1646 103.856 19.4471L103.735 21.0817C103.695 21.6871 103.524 22.1815 103.222 22.5649C102.94 22.9282 102.347 23.1098 101.442 23.1098H99.8423Z" fill="#212121"/>
<path d="M108.515 35.672C107.892 35.672 107.379 35.6115 106.976 35.4904C106.594 35.3491 106.282 35.1574 106.041 34.9153C105.82 34.6731 105.659 34.3805 105.558 34.0374C105.478 33.6742 105.437 33.2605 105.437 32.7963C105.437 32.4936 105.447 32.0698 105.468 31.525C105.508 30.9599 105.568 30.1931 105.649 29.2244C105.729 28.2356 105.82 26.9945 105.92 25.5012C106.041 23.9876 106.182 22.121 106.343 19.9011C106.363 19.4572 106.413 19.1948 106.494 19.1141C106.554 19.0536 106.715 19.0233 106.976 19.0233H108.153C108.777 19.0233 109.28 19.0838 109.662 19.2049C110.064 19.326 110.376 19.5076 110.597 19.7498C110.839 19.992 111 20.2846 111.08 20.6276C111.181 20.9707 111.231 21.3541 111.231 21.7779C111.231 22.0806 111.211 22.5347 111.171 23.1401C111.131 23.7455 111.07 24.5729 110.99 25.6222C110.929 26.6514 110.839 27.943 110.718 29.4969C110.597 31.0306 110.447 32.8871 110.266 35.0666C110.245 35.3088 110.195 35.4702 110.115 35.5509C110.034 35.6317 109.863 35.672 109.602 35.672H108.515ZM106.373 15.4514C106.373 14.6442 106.665 14.0085 107.248 13.5444C107.831 13.0802 108.616 12.8481 109.602 12.8481C110.467 12.8481 111.09 13.0298 111.473 13.393C111.875 13.7361 112.076 14.2002 112.076 14.7854C112.076 15.5321 111.794 16.1577 111.231 16.6622C110.688 17.1465 109.883 17.3887 108.817 17.3887C107.188 17.3887 106.373 16.7429 106.373 15.4514Z" fill="#212121"/>
<path d="M121.499 31.9488C122.082 31.9488 122.585 31.868 123.007 31.7066C123.45 31.5452 123.832 31.3635 124.154 31.1617C124.476 30.9599 124.748 30.7783 124.969 30.6169C125.19 30.4554 125.391 30.3747 125.572 30.3747C126.035 30.3747 126.266 30.6774 126.266 31.2828C126.266 31.4241 126.236 31.6259 126.176 31.8882C126.116 32.1304 126.035 32.3927 125.934 32.6752C125.834 32.9376 125.723 33.1898 125.603 33.432C125.502 33.6742 125.401 33.8558 125.301 33.9769C125.2 34.0778 125.019 34.2392 124.758 34.4612C124.516 34.6832 124.184 34.9052 123.762 35.1271C123.339 35.3491 122.846 35.5408 122.283 35.7023C121.72 35.8839 121.096 35.9747 120.412 35.9747C119.648 35.9747 118.853 35.8637 118.028 35.6417C117.224 35.3996 116.489 34.996 115.825 34.4309C115.162 33.8457 114.608 33.0688 114.166 32.1001C113.743 31.1113 113.532 29.8803 113.532 28.4071C113.532 27.8824 113.562 27.2871 113.623 26.6212C113.703 25.935 113.854 25.2388 114.075 24.5325C114.297 23.806 114.588 23.0997 114.95 22.4136C115.333 21.7073 115.836 21.0817 116.459 20.5368C117.083 19.992 117.827 19.5581 118.692 19.2352C119.577 18.8921 120.623 18.7206 121.831 18.7206C122.816 18.7206 123.661 18.8417 124.365 19.0838C125.09 19.3058 125.683 19.6186 126.146 20.0222C126.608 20.4057 126.95 20.8597 127.172 21.3844C127.413 21.9091 127.534 22.4741 127.534 23.0795C127.534 24.1693 127.192 24.9765 126.508 25.5012C125.824 26.0057 124.858 26.2579 123.611 26.2579C123.309 26.2579 123.098 26.2377 122.977 26.1974C122.877 26.1368 122.826 26.0158 122.826 25.8341C122.826 25.3498 122.816 24.9159 122.796 24.5325C122.776 24.1491 122.716 23.8262 122.615 23.5639C122.535 23.3015 122.404 23.0997 122.223 22.9585C122.042 22.8172 121.78 22.7466 121.438 22.7466C120.815 22.7466 120.312 22.9484 119.929 23.352C119.567 23.7556 119.286 24.25 119.084 24.8352C118.903 25.4003 118.783 25.9855 118.722 26.5909C118.682 27.1963 118.662 27.7008 118.662 28.1044C118.662 29.5372 118.883 30.5361 119.326 31.1012C119.789 31.6662 120.513 31.9488 121.499 31.9488Z" fill="#212121"/>
<path d="M135.977 35.9747C134.589 35.9747 133.433 35.783 132.507 35.3996C131.602 34.996 130.878 34.4511 130.334 33.765C129.791 33.0789 129.409 32.2817 129.188 31.3736C128.967 30.4453 128.856 29.4565 128.856 28.4071C128.856 27.1963 128.997 26.0158 129.278 24.8655C129.58 23.695 130.083 22.6558 130.787 21.7476C131.491 20.8395 132.417 20.113 133.563 19.5682C134.73 19.0031 136.179 18.7206 137.909 18.7206C140.443 18.7206 142.254 19.3462 143.34 20.5974C144.447 21.8284 145 23.5639 145 25.8039C145 26.4295 144.95 27.1257 144.849 27.8925C144.769 28.6392 144.598 29.3859 144.336 30.1325C144.095 30.8792 143.753 31.6057 143.31 32.312C142.888 33.0183 142.345 33.6439 141.681 34.1888C141.017 34.7336 140.212 35.1675 139.267 35.4904C138.341 35.8133 137.245 35.9747 135.977 35.9747ZM137.396 22.7466C136.631 22.7466 136.018 22.9484 135.555 23.352C135.112 23.7354 134.77 24.2096 134.529 24.7747C134.308 25.3195 134.157 25.9048 134.076 26.5304C134.016 27.1358 133.986 27.6504 133.986 28.0741C133.986 29.406 134.197 30.3848 134.619 31.0104C135.042 31.636 135.645 31.9488 136.43 31.9488C137.134 31.9488 137.707 31.7268 138.15 31.2828C138.613 30.8388 138.965 30.3041 139.206 29.6785C139.468 29.0529 139.639 28.397 139.719 27.7109C139.82 27.0248 139.87 26.4496 139.87 25.9855C139.87 24.9765 139.679 24.1894 139.297 23.6244C138.935 23.0392 138.301 22.7466 137.396 22.7466Z" fill="#212121"/>
</svg>
