<svg width="65" height="65" viewBox="0 0 65 65" fill="none" xmlns="http://www.w3.org/2000/svg">
<mask id="mask0_1462_1561" style="mask-type:alpha" maskUnits="userSpaceOnUse" x="0" y="0" width="65" height="65">
<rect width="65" height="65" fill="#D9D9D9"/>
</mask>
<g mask="url(#mask0_1462_1561)">
<path d="M11.5187 23.5581C4.68965 27.0912 0 34.311 0 42.6246C0 54.4112 9.42538 64.0002 21.0107 64.0002C25.2483 64.0002 29.1959 62.7161 32.5 60.512V32.5002L11.5187 23.5581Z" fill="#90E36A"/>
<path d="M32.5 60.5117C35.8041 62.7158 39.7517 63.9999 43.9893 63.9999C55.5746 63.9999 65 54.4108 65 42.6243C65 34.3081 60.3074 27.0866 53.4751 23.5547L32.5 32.4999V60.5117Z" fill="#6E76E5"/>
<path d="M41.9889 41.4424L23.011 41.4455C22.9896 41.8381 22.9788 42.2313 22.9785 42.6246C22.9785 50.0999 26.7707 56.6902 32.5 60.512C38.2293 56.6902 42.0215 50.0999 42.0215 42.6246C42.0215 42.2279 42.0099 41.8339 41.9889 41.4424Z" fill="#9BFBFF"/>
<path d="M41.9889 41.4424H32.5V60.5121C38.2293 56.6903 42.0215 50.1001 42.0215 42.6247C42.0215 42.2279 42.0099 41.8339 41.9889 41.4424Z" fill="#8CBCFF"/>
<path d="M32.5002 32.4999L53.4753 23.5547C53.4963 23.1642 53.5078 22.7712 53.5078 22.3756C53.5078 10.5891 44.0824 1 32.4971 1C20.9117 1 11.4863 10.5891 11.4863 22.3756C11.4863 22.7724 11.4979 23.1663 11.519 23.5578L32.5002 32.4999Z" fill="#FF7C48"/>
<path d="M32.4971 1L32.5002 32.5L53.4753 23.5548C53.4963 23.1644 53.5078 22.7713 53.5078 22.3757C53.5078 10.5891 44.0823 1 32.4971 1Z" fill="#FF2828"/>
<path d="M21.0106 21.249C17.5969 21.249 14.3713 22.0822 11.5186 23.5581C11.9394 31.3724 16.5044 38.082 23.0107 41.4454L32.4998 24.7371C29.1958 22.5331 25.2482 21.249 21.0106 21.249Z" fill="#FFDA44"/>
<path d="M43.9893 21.249C39.7517 21.249 35.8041 22.5331 32.5 24.7372L41.9889 41.4424C48.4928 38.0774 53.0555 31.3683 53.4751 23.555C50.6238 22.0811 47.4004 21.249 43.9893 21.249Z" fill="#FF7CEC"/>
<path d="M32.4997 24.7368C27.0738 28.3563 23.3859 34.459 23.0107 41.4452C25.862 42.9191 29.0854 43.7511 32.4967 43.7511C35.9103 43.7511 39.1359 42.918 41.9887 41.4421C41.6124 34.4572 37.9249 28.3558 32.4997 24.7368Z" fill="#FFF5F5"/>
<path d="M41.9889 41.4421C41.6127 34.4572 37.9252 28.3558 32.5 24.7368V43.7511C35.9125 43.7506 39.137 42.9176 41.9889 41.4421Z" fill="#ECE9E8"/>
</g>
</svg>
